<svg width="288" height="128" viewBox="0 0 288 128" fill="none" xmlns="http://www.w3.org/2000/svg">
<g style="mix-blend-mode:multiply" opacity="0.06">
<path d="M78.5574 79.513L0.279175 205.464L73.5631 323.059H293.935V0.424683L289.253 12.2082H284.258L281.917 23.2418H278.796C277.964 25.0807 276.236 28.7586 275.987 28.7586C275.737 28.7586 274.114 30.9653 273.333 32.0686L266.622 35.3787L262.721 39.7921L256.478 35.3787L253.2 32.0686L248.518 39.7921H243.68L239.622 32.0686C238.061 30.9653 234.878 28.7586 234.628 28.7586C234.378 28.7586 232.339 26.5519 231.35 25.4485H228.853L222.923 28.7586L217.772 32.0686L215.431 39.7921L208.408 43.1022L204.818 46.4123L200.761 51.9291L196.859 65.1694H195.142L190.46 61.8593L185.934 51.9291L182.032 46.4123H179.691L175.633 43.1022L169.859 46.4123H164.396L158.934 51.9291L153.471 58.5492L149.413 65.1694L145.043 68.4794L139.113 65.1694L134.431 68.4794L129.749 71.7895L125.379 68.4794L119.448 76.2029L114.454 71.7895L109.459 76.2029H104.621L99.4708 79.513H94.1644L88.858 82.8231L83.7077 76.2029L78.5574 79.513Z" fill="url(#paint0_linear_14_19392)"/>
</g>
<defs>
<linearGradient id="paint0_linear_14_19392" x1="183.749" y1="0.424683" x2="183.749" y2="308.696" gradientUnits="userSpaceOnUse">
<stop stop-color="#5754E3"/>
<stop offset="1" stop-color="#7F56D9" stop-opacity="0"/>
</linearGradient>
</defs>
</svg>
